# xmcd
#
# Track frame offsets:
# 150
# 18634
# 31805
# 46819
# 61725
# 77579
# 89248
# 104417
# 119031
# 134093
# 146529
# 169090
# 184723
# 199829
# 222927
# 238736
# 252843
# 271552
# 286017
# 300264
#
# Disc length: 4209 seconds
#
#
# Revision: 0
# Processed by: cddbd v1.5.2PL0 Copyright (c) Steve Scherf et al.
# Submitted via: FreeRIP 2.945 
#
DISCID=1b106f14
DTITLE=Thulio e Thiago - Ao Vivo
DYEAR=2008
DGENRE=Sertanejo
TTITLE0=Aparpa
TTITLE1=Com Todos Menos Comigo
TTITLE2=Tadim Tadim
TTITLE3=Chega
TTITLE4=Eu Bebo é Pra Ficar Mal
TTITLE5=Fogo de Amor
TTITLE6=O Mocinho e o Bandido
TTITLE7=Por Toda a Cidade
TTITLE8=Aprendi a Esperar
TTITLE9=Quem Quer Beijo na Boca
TTITLE10=Olhos da Lua - Saudade de Mim
TTITLE11=Já Falei, Vou Repetir
TTITLE12=Mensagem de Celular
TTITLE13=A Vaca Foi Pro Brejo
TTITLE14=La Cautiva
TTITLE15=Vamo Quebra Tudo
TTITLE16=Argentina - Pra Que Eu Te Esquecer
TTITLE17=Feitiço ou Magia
TTITLE18=Ainda te Amo
TTITLE19=Meninos Passarinhos
EXTD=
EXTT0=
EXTT1=
EXTT2=
EXTT3=
EXTT4=
EXTT5=
EXTT6=
EXTT7=
EXTT8=
EXTT9=
EXTT10=
EXTT11=
EXTT12=
EXTT13=
EXTT14=
EXTT15=
EXTT16=
EXTT17=
EXTT18=
EXTT19=
PLAYORDER=
